PathFileType	4	(X/Y/Z)	D:\TRACE\spotREDO_2-26-24\spot_justBody_Motion_2_8-platform.trc
DataRate	CameraRate	NumFrames	NumMarkers	Units	OrigDataRate	OrigDataStartFrame	OrigNumFrames
100.00	100.00	      60	5	mm	100.00	6126	      7000
Frame#	Time	Left_Front			Right_Front			Left_Aft			Right_Aft			Post			
		X1	Y1	Z1	X2	Y2	Z2	X3	Y3	Z3	X4	Y4	Z4	X5	Y5	Z5	

6126	61.250	-721.20099	-55.63244	-586.68402	693.64532	-40.26808	-502.47925	-793.25391	56.73921	626.78241	776.99542	64.15073	630.54156	-11.75740	533.74756	-1046.20837	
6127	61.260	-720.39001	-55.18850	-586.70813	694.75616	-39.83815	-502.32977	-792.12317	56.24453	626.96790	778.21265	63.51818	630.68329	-10.39903	534.48785	-1045.67041	
6128	61.270	-719.34631	-54.83075	-586.50018	695.63818	-39.26149	-502.37830	-791.16461	55.61884	627.27454	778.96558	63.03977	630.49988	-9.49890	535.34894	-1045.03711	
6129	61.280	-718.33673	-54.31910	-586.40332	696.47388	-38.79261	-502.32977	-790.08081	54.78203	627.40363	780.22131	62.55789	631.04266	-8.18795	536.46320	-1044.07361	
6130	61.290	-717.31293	-53.72332	-586.31720	697.39233	-38.29126	-502.16330	-789.10254	54.13064	627.62622	781.12921	61.92710	631.33795	-6.87270	537.40436	-1043.66357	
6131	61.300	-716.31281	-53.08780	-586.23230	698.63043	-37.77735	-502.03760	-788.26300	53.89454	627.68994	781.76947	61.33561	631.25421	-6.05265	538.50592	-1042.42761	
6132	61.310	-715.34998	-52.35333	-586.04950	699.32166	-37.03847	-501.94482	-786.93951	53.04303	628.06824	782.91394	60.66611	631.58899	-5.11251	539.96417	-1042.14758	
6133	61.320	-714.39844	-51.49908	-586.07617	700.40521	-36.34847	-501.96909	-786.10376	52.47278	628.17261	783.88794	59.85637	631.87543	-4.01781	540.82471	-1041.08325	
6134	61.330	-713.37238	-50.88214	-585.91156	701.61023	-35.90910	-501.78131	-785.01117	51.51483	628.68805	784.85138	58.86647	631.99872	-2.79345	542.44000	-1040.06982	
6135	61.340	-712.32599	-50.13168	-585.65192	702.47467	-35.33322	-501.49307	-783.88409	50.86280	628.90033	785.62152	58.06337	631.71173	-2.28376	543.64526	-1039.40845	
6136	61.350	-711.42554	-49.56003	-585.50256	703.57349	-34.60187	-501.40918	-782.92657	50.21499	629.01434	787.64014	58.24549	633.02942	-1.18316	544.95795	-1038.48206	
6137	61.360	-710.20026	-48.63717	-585.48999	704.58911	-34.03173	-501.24747	-781.82196	49.20473	629.35419	788.85480	57.49411	633.52203	-0.40392	546.48370	-1037.82007	
6138	61.370	-709.26636	-47.59337	-585.29492	705.76984	-32.99790	-501.15421	-780.74878	48.52710	629.70416	789.42682	56.63591	633.78833	0.78931	547.63782	-1036.73425	
6139	61.380	-708.03046	-46.89406	-585.14691	706.53235	-32.31727	-500.95718	-779.74951	47.59336	629.84796	790.74939	55.69935	633.95496	1.59563	549.25079	-1035.99536	
6140	61.390	-706.88867	-46.09415	-584.84192	707.91602	-31.50936	-500.85364	-778.68250	46.79798	630.24103	791.91791	54.73615	634.22864	2.92672	550.89850	-1034.92883	
6141	61.400	-706.00623	-45.25843	-584.75732	708.93616	-30.82080	-500.44009	-777.72955	45.94067	630.55804	792.65594	53.76450	634.32190	4.33909	552.39313	-1033.73462	
6142	61.410	-704.92450	-44.09879	-584.59399	710.10114	-30.08262	-500.37839	-776.67694	45.03122	630.78625	794.02313	53.11249	635.04846	5.09723	553.92993	-1032.82751	
6143	61.420	-703.78705	-43.23569	-584.57574	711.02979	-28.95174	-500.26642	-775.46844	44.06067	631.21283	795.22034	52.40368	635.38257	6.25178	555.82050	-1031.44104	
6144	61.430	-702.55273	-42.36740	-584.29285	712.08270	-28.09104	-500.09473	-774.38330	43.31503	631.48181	796.23450	51.18049	635.60687	6.98158	557.49994	-1030.32056	
6145	61.440	-701.36377	-41.36055	-584.15869	713.25543	-27.45080	-499.81021	-773.25006	42.08078	631.73279	797.09839	49.89524	635.81610	8.54447	559.28625	-1029.03259	
6146	61.450	-700.33160	-40.26889	-583.80963	714.35028	-26.46369	-499.65094	-772.16620	40.99640	632.11578	798.29755	49.25323	636.07123	9.40274	560.87524	-1027.85547	
6147	61.460	-699.22198	-39.39141	-583.59418	715.47913	-25.58153	-499.34302	-771.11969	40.00851	632.45343	799.57928	48.42580	636.72278	10.50421	562.82495	-1026.58533	
6148	61.470	-698.07037	-38.14795	-583.43530	716.71167	-24.73587	-499.03616	-769.80798	39.03029	632.81085	800.58252	47.18757	636.98059	11.58011	564.80054	-1025.26685	
6149	61.480	-696.92670	-36.84025	-583.29340	717.72028	-23.68954	-499.05643	-768.74353	37.84449	633.23907	801.67603	45.60243	637.13019	12.64341	566.69464	-1023.94202	
6150	61.490	-695.90540	-36.05083	-583.05359	718.74603	-22.73237	-498.72995	-767.51343	36.89124	633.73505	803.29498	44.81483	637.57117	13.78289	568.63971	-1022.91614	
6151	61.500	-694.85986	-34.93546	-582.78644	719.97815	-21.69053	-498.50296	-766.47046	35.60633	633.92828	804.22363	43.74487	638.05817	15.10527	570.41571	-1021.40942	
6152	61.510	-693.83759	-33.60089	-582.69153	721.30701	-20.75346	-497.96164	-765.25195	34.57193	634.43115	804.93756	42.39548	638.27167	15.84046	572.49799	-1020.17041	
6153	61.520	-692.47015	-32.61143	-582.35919	722.02118	-19.48437	-498.06363	-764.30176	33.39644	634.70990	806.59241	41.31469	638.90717	17.16786	574.48029	-1018.68030	
6154	61.530	-691.43890	-31.16992	-582.04547	723.31519	-18.47068	-497.87186	-763.01086	32.00915	635.00549	807.34448	40.12143	639.14362	18.18323	576.60516	-1017.35291	
6155	61.540	-690.30072	-29.89924	-581.86969	724.50250	-17.66095	-497.34964	-761.84320	30.91645	635.35736	808.92035	39.13200	639.49652	19.50663	578.73169	-1015.67975	
6156	61.550	-689.08820	-28.77159	-581.62909	725.55609	-16.31198	-497.16229	-760.57642	29.66344	635.92865	810.04987	37.92625	639.92303	20.52565	580.93756	-1014.25281	
6157	61.560	-688.15485	-27.37151	-581.29242	726.78125	-15.48534	-496.76328	-759.67340	28.28220	636.33398	811.18866	36.33364	640.21637	21.58768	583.05310	-1012.74744	
6158	61.570	-687.04156	-26.32197	-580.97565	727.91254	-14.32458	-496.52823	-758.53687	27.15010	636.68298	811.93549	34.59422	640.27698	22.71427	585.27032	-1010.82751	
6159	61.580	-685.80719	-24.95088	-580.62878	729.07056	-13.06652	-496.32980	-757.44427	25.74933	636.88165	813.27454	33.64349	640.86334	23.95471	587.39130	-1009.50330	
6160	61.590	-684.66449	-23.51429	-580.40417	730.09381	-12.11324	-496.03506	-756.32269	24.41039	637.44800	814.52692	32.61393	641.20868	24.95465	589.69116	-1007.58997	
6161	61.600	-683.45850	-22.39631	-580.19995	730.98535	-10.61229	-495.92377	-755.13580	23.19925	637.77301	815.83209	30.39459	641.61279	25.94220	591.98871	-1006.17657	
6162	61.610	-682.69983	-20.86755	-579.89313	732.34558	-9.79534	-495.25742	-753.86554	21.67734	638.38452	816.56183	29.45504	642.10107	27.17761	594.34369	-1004.62762	
6163	61.620	-681.42438	-19.62452	-579.53680	733.53845	-8.47383	-495.04657	-752.83020	20.43767	638.65582	817.52209	28.26861	642.40295	28.18319	596.49725	-1002.64899	
6164	61.630	-680.24011	-18.39682	-579.22546	734.27313	-7.29867	-494.80728	-751.76691	19.35395	639.16223	818.45465	26.84318	642.69806	29.19069	598.84064	-1001.27344	
6165	61.640	-678.95520	-16.93607	-578.83099	735.63568	-6.04877	-494.62173	-750.55817	17.63070	639.44415	819.69006	25.30800	642.98694	30.54344	601.05078	-999.55402	
6166	61.650	-677.97009	-15.56465	-578.59235	736.61188	-4.84118	-494.20001	-749.62091	16.37565	639.72339	821.09369	24.22350	643.73743	31.39069	603.42639	-997.78558	
6167	61.660	-676.99438	-14.07621	-578.29590	738.01483	-3.90611	-493.66928	-748.44977	14.87837	640.25885	822.06458	22.88922	644.01123	32.87336	605.63928	-996.01019	
6168	61.670	-675.79645	-13.04548	-578.00293	738.76373	-2.35111	-493.54514	-747.26929	13.30534	640.60132	823.00116	21.32732	644.22455	33.59344	608.06732	-994.38184	
6169	61.680	-674.69611	-11.41607	-577.57391	740.09723	-1.54871	-493.09750	-746.16907	11.94734	641.05988	824.34418	19.78020	644.55035	34.75558	610.31567	-992.58215	
6170	61.690	-673.64899	-10.04785	-577.10864	740.92645	-0.18006	-492.78900	-745.15631	10.79959	641.33252	825.24060	18.42152	645.16754	36.02142	612.67395	-990.50726	
6171	61.700	-672.68652	-8.47278	-577.05219	742.24365	1.06390	-492.39038	-744.02979	9.23886	641.74713	826.35608	17.01945	645.65253	36.97278	615.16760	-988.90259	
6172	61.710	-671.59528	-7.34337	-576.64532	743.26569	2.15871	-491.99237	-743.08264	8.20481	641.93988	827.28778	15.70853	645.83795	38.32388	617.58795	-986.83356	
6173	61.720	-670.50574	-5.91439	-576.31696	744.26813	3.54697	-491.81458	-742.03839	6.44809	642.53766	828.53790	13.87041	646.02454	39.02253	619.82947	-985.40216	
6174	61.730	-669.55365	-4.48212	-575.74957	745.08270	4.72091	-491.61301	-740.96155	4.93022	642.98962	829.59259	12.98203	646.67755	39.80207	622.05963	-983.53210	
6175	61.740	-668.48431	-3.33864	-575.44501	746.22705	5.84945	-490.89075	-739.76392	3.61640	643.37073	830.58099	11.58493	647.20752	41.03841	624.53192	-981.58862	
6176	61.750	-667.42603	-1.87298	-575.10449	747.58533	6.94967	-490.47507	-738.92444	2.15046	643.68469	831.67657	10.16024	647.52258	41.88361	627.00421	-979.81488	
6177	61.760	-666.52985	-0.41293	-574.78235	748.12518	8.44290	-490.28424	-737.88043	0.64235	644.11505	832.55145	8.23945	647.75653	43.03226	629.42816	-978.08148	
6178	61.770	-665.45605	1.26277	-574.29468	749.19666	9.70389	-489.99857	-736.83020	-0.91383	644.54932	833.56152	6.82398	648.15771	44.06266	631.67572	-976.07129	
6179	61.780	-664.49390	2.40983	-573.85461	750.26349	10.81750	-489.60129	-735.76563	-1.88004	644.84601	834.39941	5.35067	648.51971	44.92056	634.14355	-974.20105	
6180	61.790	-663.62274	3.99634	-573.48535	751.33978	11.97315	-489.04053	-734.84473	-3.85032	645.15424	835.83392	3.72761	648.62933	45.64619	636.65710	-972.29498	
6181	61.800	-662.49902	5.29667	-573.16528	752.14093	13.36734	-488.68710	-733.98041	-5.36934	645.55481	836.59149	2.56740	649.33734	46.73905	638.97913	-970.42542	
6182	61.810	-661.65680	6.81483	-572.83374	753.04034	14.53454	-488.28989	-732.94946	-6.75506	645.87305	837.39734	1.17258	649.60547	47.56926	641.13330	-968.48419	
6183	61.820	-660.62720	8.09540	-572.38086	754.17853	15.77972	-487.86426	-732.17316	-8.04820	646.17151	838.25146	-0.22381	649.93549	48.41007	643.47235	-966.79004	
6184	61.830	-659.98779	9.59162	-572.13910	754.92993	16.75461	-487.44235	-731.42657	-9.70349	646.51422	838.96930	-1.91921	649.77515	49.40584	645.71265	-964.62610	
6185	61.840	-659.28259	10.81509	-571.66669	755.72626	18.02509	-487.13846	-730.15344	-11.24636	647.04059	839.88898	-3.42443	650.26892	50.23689	648.09631	-962.70209	
